<?xml version="1.0" standalone="no"?>
<!DOCTYPE svg PUBLIC "-//W3C//DTD SVG 20010904//EN"
 "http://www.w3.org/TR/2001/REC-SVG-20010904/DTD/svg10.dtd">
<svg version="1.0" xmlns="http://www.w3.org/2000/svg"
 width="260.000000pt" height="260.000000pt" viewBox="0 0 260.000000 260.000000"
 preserveAspectRatio="xMidYMid meet">
<metadata>
Created by potrace 1.14, written by Peter Selinger 2001-2017
</metadata>
<g transform="translate(0.000000,260.000000) scale(0.100000,-0.100000)"
fill="#000000" stroke="none">
<path d="M1411 2467 c-10 -23 -23 -59 -30 -79 -7 -21 -16 -40 -21 -43 -7 -4
-76 -10 -239 -18 -32 -2 -37 2 -79 71 -27 42 -51 72 -61 71 -9 0 -45 -10 -81
-23 l-65 -22 1 -59 c0 -33 3 -77 6 -97 6 -37 6 -37 -60 -76 -37 -22 -78 -50
-92 -62 -63 -56 -63 -56 -139 -11 -38 22 -76 41 -84 41 -8 0 -30 -18 -49 -41
-18 -22 -41 -50 -50 -61 -10 -12 -18 -25 -18 -31 0 -10 80 -110 93 -115 19 -9
12 -29 -96 -251 -11 -23 -17 -25 -94 -25 -45 -1 -86 -5 -92 -11 -11 -11 -19
-46 -28 -120 l-5 -51 43 -18 c126 -52 126 -52 124 -88 -1 -18 0 -38 2 -45 4
-9 131 -29 160 -24 4 0 9 31 10 68 5 132 49 305 100 385 12 21 23 40 23 44 0
12 90 121 136 164 51 48 152 119 194 137 8 3 34 14 57 24 23 11 48 19 56 19 7
0 17 3 21 8 4 4 11 7 14 8 4 0 21 3 37 7 57 14 100 18 190 21 374 11 689 -219
810 -590 43 -132 49 -307 14 -439 -6 -22 -13 -50 -16 -63 -3 -12 -9 -25 -14
-28 -5 -3 -9 -15 -9 -28 0 -12 -4 -26 -9 -31 -6 -6 -21 -31 -35 -58 -33 -62
-104 -157 -117 -157 -6 0 -35 20 -65 45 -84 68 -208 148 -314 201 -52 27 -97
49 -100 49 -3 1 -22 9 -42 18 -98 42 -329 113 -433 131 -16 3 -39 8 -50 10
-11 2 -40 7 -65 10 -25 3 -56 8 -70 10 -33 6 -100 14 -185 22 -72 6 -88 -4
-19 -12 39 -5 45 -6 119 -23 249 -58 545 -172 633 -243 6 -6 12 -7 12 -2 0 4
10 -1 23 -12 12 -11 34 -26 50 -34 15 -7 27 -17 27 -22 0 -4 5 -8 11 -8 16 0
164 -118 239 -192 69 -66 131 -136 165 -182 11 -16 25 -34 32 -41 45 -47 193
-317 193 -352 0 -10 29 -13 130 -13 72 0 130 3 130 8 0 4 -6 19 -14 34 -8 14
-19 42 -25 61 -7 19 -27 60 -46 91 -18 31 -31 56 -29 56 3 0 -13 26 -35 58
l-39 58 39 44 c22 25 46 57 54 71 13 24 12 29 -3 47 -75 89 -95 121 -84 135
21 28 70 126 86 175 12 34 23 52 34 53 9 0 49 2 87 4 39 1 73 3 77 4 9 1 25
61 33 122 7 54 6 56 -92 94 l-73 28 -1 76 c-2 79 -3 93 -12 151 -8 47 -2 54
79 95 17 9 41 25 53 36 20 19 20 21 5 57 -9 20 -17 45 -19 56 -3 10 -11 29
-20 43 -14 21 -22 23 -53 18 -20 -3 -53 -8 -72 -11 -19 -3 -41 -7 -48 -9 -7
-3 -24 15 -40 42 -15 25 -51 77 -79 116 l-53 70 19 31 c11 17 31 54 45 81 l26
50 -28 24 c-15 13 -42 36 -59 52 -18 16 -39 29 -47 29 -8 0 -45 -23 -81 -51
l-67 -51 -86 44 c-48 25 -104 50 -124 57 l-38 13 0 88 c0 99 -2 101 -73 114
-107 20 -106 20 -126 -27z"/>
<path d="M1630 1882 c-23 -3 -25 -6 -23 -55 1 -29 2 -213 2 -409 l1 -357 33
-17 c45 -23 170 -106 179 -119 5 -6 8 -6 9 0 6 47 2 948 -5 952 -9 6 -156 10
-196 5z"/>
<path d="M1330 1471 l0 -286 63 -24 c34 -13 83 -34 109 -46 27 -13 49 -20 51
-17 2 4 3 153 3 332 l-1 325 -112 1 -113 2 0 -287z"/>
<path d="M1055 1601 c-3 -2 -5 -79 -5 -171 0 -126 3 -167 13 -168 21 -1 65
-12 92 -22 14 -5 25 -8 25 -6 0 3 22 -4 48 -13 l48 -18 0 199 c0 109 -2 199
-5 199 -17 4 -212 4 -216 0z"/>
<path d="M770 1405 c0 -96 -12 -84 110 -105 36 -6 76 -13 90 -16 l25 -5 1 106
1 105 -113 0 -114 0 0 -85z"/>
<path d="M142 1134 c4 -4 22 -8 40 -9 18 -2 33 -4 33 -5 0 -1 7 -3 16 -5 64
-12 64 -16 1 -51 -33 -19 -62 -40 -65 -47 -6 -17 39 -148 55 -159 7 -5 28 -6
47 -2 19 3 58 8 86 10 l51 5 23 -43 c30 -54 100 -150 118 -161 10 -6 3 -27
-33 -94 l-47 -86 39 -36 c21 -20 52 -46 67 -58 28 -21 30 -22 55 -5 15 9 34
24 43 32 21 20 52 44 66 53 7 4 51 -13 100 -37 48 -24 104 -50 124 -57 l37
-12 0 -71 c0 -116 -1 -114 30 -120 15 -4 38 -9 52 -12 93 -21 106 -14 134 72
26 81 28 82 141 89 55 3 112 7 128 9 23 4 32 -2 55 -38 38 -59 48 -75 73 -123
l23 -43 118 0 118 0 -22 42 c-12 24 -22 45 -23 48 -1 13 -117 182 -165 240
-114 139 -306 304 -440 376 -19 10 -37 22 -40 25 -5 6 -125 64 -200 97 -91 40
-324 112 -412 127 -56 10 -84 15 -108 20 -84 17 -328 40 -318 29z m469 -134
c41 -16 86 -37 102 -45 15 -9 27 -14 27 -11 0 8 203 -99 269 -141 83 -53 206
-151 296 -237 l80 -76 -84 1 c-330 7 -606 182 -755 479 -14 29 -26 54 -26 56
0 9 20 3 91 -26z"/>
</g>
</svg>
